A T60 @26 v8 o4 l8
B T60 @26 v8 o4 l2
J T60 @72 v10 o3 l8

A a4 b >c+ d4 c+ <b | a4 b >c+<  b2 | a4 b >c+ d4 c+ <b | a4 b >c+<  g+2
B e        f        | f+         e  | e        f        | f+         e

A a4 b >c+ d4 c+ <b | a4 b >c+<  b2 | a4 b >c+ d4 c+ <b | a4 g+ f+ e2
B e        f        | f+         e  | e        f        | f+       <b

# J [c4 c c]15 c2
